<?xml version="1.0" encoding="utf-8"?>
<!-- Generator: Adobe Illustrator 24.2.1, SVG Export Plug-In . SVG Version: 6.00 Build 0)  -->
<!DOCTYPE svg PUBLIC "-//W3C//DTD SVG 1.1//EN" "http://www.w3.org/Graphics/SVG/1.1/DTD/svg11.dtd" [
	<!ENTITY ns_extend "http://ns.adobe.com/Extensibility/1.0/">
	<!ENTITY ns_ai "http://ns.adobe.com/AdobeIllustrator/10.0/">
	<!ENTITY ns_graphs "http://ns.adobe.com/Graphs/1.0/">
	<!ENTITY ns_vars "http://ns.adobe.com/Variables/1.0/">
	<!ENTITY ns_imrep "http://ns.adobe.com/ImageReplacement/1.0/">
	<!ENTITY ns_sfw "http://ns.adobe.com/SaveForWeb/1.0/">
	<!ENTITY ns_custom "http://ns.adobe.com/GenericCustomNamespace/1.0/">
	<!ENTITY ns_adobe_xpath "http://ns.adobe.com/XPath/1.0/">
]>
<svg version="1.1" id="Layer_1" xmlns:x="&ns_extend;" xmlns:i="&ns_ai;" xmlns:graph="&ns_graphs;"
	 xmlns="http://www.w3.org/2000/svg" xmlns:xlink="http://www.w3.org/1999/xlink" x="0px" y="0px" viewBox="0 0 82.8 83.2"
	 style="enable-background:new 0 0 82.8 83.2;" xml:space="preserve">
<style type="text/css">
	.st0{fill:#899CD7;}
</style>
<metadata>
	<sfw  xmlns="&ns_sfw;">
		<slices></slices>
		<sliceSourceBounds  bottomLeftOrigin="true" height="76.2" width="76.3" x="3.7" y="2.6"></sliceSourceBounds>
	</sfw>
</metadata>
<path class="st0" d="M41.8,80.6c-0.5,0-1.1,0-1.6,0l0.1-2.2h1.5h0.6v2.2H41.8z M44.7,80.5l-0.2-2.2c0.7,0,1.4-0.1,2.1-0.2l0.3,2.2
	C46.2,80.4,45.4,80.4,44.7,80.5z M38,80.4c-0.7-0.1-1.5-0.2-2.2-0.3l0.3-2.1c0.7,0.1,1.4,0.2,2.1,0.3L38,80.4z M49,79.9l-0.4-2.1
	c0.7-0.1,1.4-0.3,2-0.5l0.5,2.1C50.5,79.6,49.8,79.8,49,79.9L49,79.9z M33.6,79.7c-0.7-0.2-1.5-0.3-2.2-0.5l0.6-2.1
	c0.7,0.2,1.4,0.4,2,0.5L33.6,79.7z M53.3,78.8l-0.7-2.1c0.7-0.2,1.3-0.4,2-0.7l0.8,2C54.8,78.3,54.1,78.6,53.3,78.8L53.3,78.8z
	 M29.3,78.5c-0.7-0.2-1.4-0.5-2.1-0.8l0.8-2c0.6,0.3,1.3,0.5,2,0.7L29.3,78.5z M57.4,77.2l-0.9-2c0.6-0.3,1.3-0.6,1.9-0.9l1,1.9
	C58.8,76.6,58.2,76.9,57.4,77.2L57.4,77.2z M25.2,76.9c-0.7-0.3-1.3-0.7-2-1l1.1-1.9c0.6,0.3,1.2,0.7,1.9,1L25.2,76.9z M61.4,75.2
	l-1.1-1.9c0.6-0.4,1.2-0.7,1.8-1.1l1.2,1.8C62.7,74.4,62,74.8,61.4,75.2L61.4,75.2z M21.4,74.7c-0.6-0.4-1.2-0.8-1.8-1.2l1.3-1.8
	c0.6,0.4,1.1,0.8,1.7,1.1L21.4,74.7z M65.1,72.7L63.8,71c0.5-0.4,1.1-0.9,1.6-1.3l1.4,1.6C66.2,71.7,65.7,72.2,65.1,72.7L65.1,72.7z
	 M17.8,72.1c-0.6-0.5-1.1-0.9-1.7-1.4l1.5-1.6c0.5,0.5,1,0.9,1.6,1.4L17.8,72.1z M68.4,69.7l-1.5-1.6c0.5-0.5,1-1,1.5-1.5l1.6,1.5
	C69.5,68.7,68.9,69.2,68.4,69.7L68.4,69.7z M14.5,69.1c-0.5-0.5-1-1.1-1.5-1.6l1.6-1.4c0.5,0.5,0.9,1,1.4,1.5L14.5,69.1z M71.4,66.5
	l-1.7-1.4c0.4-0.5,0.9-1.1,1.3-1.7l1.8,1.2C72.3,65.3,71.9,65.9,71.4,66.5z M11.6,65.8c-0.4-0.6-0.9-1.2-1.3-1.8l1.8-1.2
	c0.4,0.6,0.8,1.1,1.2,1.7L11.6,65.8z M74,62.9l-1.8-1.1c0.4-0.6,0.7-1.2,1.1-1.8l1.9,1.1C74.7,61.6,74.4,62.2,74,62.9L74,62.9z
	 M9.1,62.1c-0.4-0.6-0.7-1.3-1.1-1.9l2-1c0.3,0.6,0.7,1.2,1,1.8L9.1,62.1z M76.1,59l-2-0.9c0.3-0.6,0.6-1.3,0.8-1.9l2,0.8
	C76.8,57.6,76.5,58.3,76.1,59L76.1,59z M7,58.2c-0.3-0.7-0.6-1.4-0.9-2l2-0.8C8.4,56,8.7,56.7,9,57.3L7,58.2z M77.8,54.9l-2.1-0.7
	c0.2-0.7,0.4-1.3,0.6-2l2.1,0.6C78.3,53.5,78.1,54.2,77.8,54.9L77.8,54.9z M5.5,54.1C5.3,53.4,5,52.7,4.9,52L7,51.4
	c0.2,0.7,0.4,1.3,0.6,2L5.5,54.1z M79.1,50.6L77,50.1c0.1-0.7,0.3-1.4,0.4-2.1l2.2,0.3C79.3,49.1,79.2,49.9,79.1,50.6L79.1,50.6z
	 M4.4,49.8c-0.1-0.7-0.3-1.5-0.4-2.2l2.2-0.3c0.1,0.7,0.2,1.4,0.3,2.1L4.4,49.8z M79.8,46.2L77.6,46c0.1-0.7,0.1-1.4,0.1-2.1v-0.1
	l2.2,0.1V44C79.8,44.7,79.8,45.5,79.8,46.2L79.8,46.2z M3.8,45.4c0-0.7-0.1-1.5-0.1-2.2h2.2c0,0.7,0,1.4,0.1,2.1L3.8,45.4z
	 M77.8,41.8c0-0.7,0-1.4-0.1-2.1l2.2-0.2c0,0.7,0.1,1.5,0.1,2.2L77.8,41.8z M5.9,41H3.7l0,0c0-0.7,0.1-1.5,0.1-2.2L6,38.9
	C6,39.6,5.9,40.3,5.9,41L5.9,41z M77.5,37.6c-0.1-0.7-0.2-1.4-0.3-2.1l2.1-0.4c0.1,0.7,0.3,1.5,0.4,2.2L77.5,37.6z M6.3,36.9
	l-2.2-0.3c0.1-0.7,0.3-1.5,0.4-2.2l2.1,0.5C6.5,35.5,6.3,36.2,6.3,36.9L6.3,36.9z M76.7,33.5c-0.2-0.7-0.4-1.4-0.6-2l2-0.7
	c0.2,0.7,0.4,1.4,0.6,2.1L76.7,33.5z M7.2,32.8L5,32.3c0.2-0.7,0.4-1.4,0.7-2.1l2.1,0.7C7.5,31.5,7.3,32.1,7.2,32.8L7.2,32.8z
	 M75.4,29.6c-0.2-0.6-0.5-1.3-0.8-1.9l2-0.9c0.3,0.7,0.6,1.4,0.9,2L75.4,29.6z M8.5,28.9l-2-0.8c0.3-0.7,0.6-1.4,0.9-2l2,0.9
	C9,27.6,8.7,28.2,8.5,28.9L8.5,28.9z M73.6,25.7c-0.3-0.6-0.7-1.2-1-1.8l1.9-1.1c0.4,0.6,0.7,1.3,1.1,1.9L73.6,25.7z M10.3,25.1
	L8.4,24c0.4-0.6,0.7-1.3,1.1-1.9l1.8,1.1C11,23.8,10.6,24.4,10.3,25.1z M71.4,22.1c-0.4-0.6-0.8-1.1-1.2-1.7l1.7-1.3
	c0.5,0.6,0.9,1.2,1.3,1.8L71.4,22.1z M12.5,21.5l-1.8-1.3c0.4-0.6,0.9-1.2,1.4-1.8l1.7,1.4C13.4,20.4,12.9,21,12.5,21.5z M68.9,18.9
	c-0.5-0.5-0.9-1-1.4-1.5l1.6-1.5c0.5,0.5,1,1.1,1.5,1.6L68.9,18.9z M15.2,18.3l-1.6-1.5c0.5-0.5,1-1.1,1.5-1.6l1.6,1.5
	C16.1,17.3,15.6,17.7,15.2,18.3L15.2,18.3z M65.9,15.9c-0.5-0.5-1.1-0.9-1.6-1.4l1.4-1.7c0.6,0.5,1.1,0.9,1.7,1.4L65.9,15.9z
	 M18.1,15.4l-1.4-1.6c0.5-0.5,1.1-1,1.7-1.4l1.3,1.7C19.2,14.5,18.7,14.9,18.1,15.4L18.1,15.4z M62.7,13.2c-0.6-0.4-1.1-0.8-1.7-1.1
	l1.1-1.8c0.6,0.4,1.2,0.8,1.8,1.2L62.7,13.2z M21.4,12.8L20.2,11c0.6-0.4,1.2-0.8,1.9-1.2l1.1,1.9C22.6,12,22,12.4,21.4,12.8
	L21.4,12.8z M59.2,11c-0.6-0.3-1.2-0.7-1.9-1l0.9-2c0.7,0.3,1.3,0.7,2,1L59.2,11z M25,10.6l-1-1.9c0.6-0.3,1.3-0.7,2-1l0.9,2
	C26.3,10,25.6,10.3,25,10.6z M55.4,9.2c-0.6-0.3-1.3-0.5-2-0.7l0.7-2.1c0.7,0.2,1.4,0.5,2.1,0.8L55.4,9.2z M28.8,8.9l-0.8-2
	c0.7-0.3,1.4-0.5,2.1-0.7l0.7,2.1C30.1,8.4,29.5,8.7,28.8,8.9z M51.4,7.8c-0.7-0.2-1.4-0.4-2-0.5l0.5-2.1c0.7,0.2,1.4,0.3,2.1,0.5
	L51.4,7.8z M32.8,7.6l-0.5-2.1C33,5.3,33.7,5.2,34.4,5l0.4,2.1C34.2,7.3,33.5,7.5,32.8,7.6L32.8,7.6z M47.3,6.9
	c-0.7-0.1-1.4-0.2-2.1-0.3l0.2-2.2c0.7,0.1,1.5,0.2,2.2,0.3L47.3,6.9z M36.9,6.8l-0.3-2.2c0.7-0.1,1.5-0.2,2.2-0.2L39,6.6
	C38.3,6.7,37.6,6.7,36.9,6.8L36.9,6.8z M43.2,6.6c-0.7,0-1.4,0-2.1,0V4.4c0.7,0,1.5,0,2.2,0L43.2,6.6z"/>
<g id="Layer_1_1_">
</g>
<g id="Layer_1_2_">
</g>
<g>
	<path class="st0" d="M61.3,48.5c0.6-0.8,0.9-1.8,0.9-2.9c0-2.6-1.9-4.5-4.6-4.5C55,41,53,42.9,53,45.5c0,1.1,0.3,2.1,0.9,2.9
		c-1.4,0.9-2.4,2.2-3.1,3.7c-0.6-0.1-1.2-0.2-1.8-0.3c-0.2-2.5-1.7-5.2-4-6.6c0.6-0.8,0.9-1.8,0.9-2.9c0-2.6-1.9-4.5-4.6-4.5
		c-2.6,0-4.6,1.9-4.6,4.5c0,1.1,0.3,2.1,0.9,2.9c-2.2,1.4-3.8,4.1-4,6.6c-0.6,0.1-1.2,0.2-1.8,0.3c-0.7-1.5-1.8-2.8-3.1-3.6
		c0.6-0.8,0.9-1.8,0.9-2.9c0-2.6-1.9-4.5-4.6-4.5s-4.6,1.9-4.6,4.5c0,1.1,0.3,2.1,0.9,2.9c-2.4,1.6-4,4.5-4,7.2
		c0,3.8,2.9,6.2,7.7,6.2c0.1,0,0.2,0,0.3,0c3.6,2,9.9,3.1,16,3.1c6.1,0,12.5-1.1,16-3.1c0.1,0,0.2,0,0.3,0c4.7,0,7.7-2.4,7.7-6.2
		C65.3,53,63.7,50,61.3,48.5z M57.6,42.5c1.8,0,3.1,1.3,3.1,3.1c0,1.9-1.4,3.5-3.1,3.5c-1.7,0-3.1-1.6-3.1-3.5
		C54.5,43.7,55.8,42.5,57.6,42.5z M41.3,39.2c1.8,0,3.1,1.3,3.1,3.1c0,1.9-1.4,3.5-3.1,3.5s-3.1-1.6-3.1-3.5
		C38.2,40.5,39.5,39.2,41.3,39.2z M38.6,46.3c0.8,0.6,1.7,0.9,2.7,0.9c1,0,1.9-0.4,2.7-0.9c1.9,1.1,3.2,3.2,3.5,5.3
		c-2-0.2-4.1-0.4-6.2-0.4c-2.1,0-4.2,0.1-6.2,0.4C35.4,49.5,36.7,47.3,38.6,46.3z M25,42.5c1.8,0,3.1,1.3,3.1,3.1
		c0,1.9-1.4,3.5-3.1,3.5c-1.7,0-3.1-1.6-3.1-3.5C21.9,43.7,23.2,42.5,25,42.5z M18.8,55.7c0-2.4,1.4-4.9,3.6-6.2
		c0.8,0.6,1.7,0.9,2.7,0.9c1,0,1.9-0.4,2.7-0.9c1.1,0.7,2.1,1.7,2.7,2.9c-4.6,1.1-8,3.1-8,5.7c0,0.8,0.3,1.5,0.9,2.2
		C21.3,60,18.8,58.9,18.8,55.7z M23.8,58.1c0-2.6,7.2-5.5,17.5-5.5s17.5,2.9,17.5,5.5s-7.2,5.5-17.5,5.5S23.8,60.7,23.8,58.1z
		 M59.3,60.3c0.6-0.7,0.9-1.4,0.9-2.2c0-2.6-3.4-4.6-8-5.7c0.6-1.2,1.6-2.2,2.7-2.9c0.8,0.6,1.7,0.9,2.7,0.9c1,0,1.9-0.4,2.7-0.9
		c2.1,1.2,3.6,3.8,3.6,6.2C63.8,59,61.3,60,59.3,60.3z"/>
	<path class="st0" d="M24.4,34.7l0.6,3c0.1,0.3,0.2,0.5,0.5,0.5c0.3,0.1,0.5,0,0.7-0.2l2.8-2.9c3.3-0.3,6.1-1.9,7.1-4.1
		c0.7,0.4,1.6,0.7,2.5,0.9l2.1,3.2c0.3,0.4,0.9,0.4,1.2,0l2.1-3.2c0.9-0.2,1.7-0.5,2.5-0.9c1,2.2,3.8,3.8,7.1,4.1l2.8,2.9
		c0.1,0.1,0.3,0.2,0.5,0.2c0.1,0,0.1,0,0.2,0c0.3-0.1,0.5-0.3,0.5-0.5l0.6-3c3-1,4.9-3.1,4.9-5.5c0-3.3-3.8-6.1-8.6-6.1
		c-1.9,0-3.7,0.4-5.2,1.2c-1.1-2.4-4.4-4.1-8.1-4.1c-3.7,0-7,1.7-8.1,4.1c-1.5-0.8-3.3-1.2-5.1-1.2c-4.7,0-8.6,2.7-8.6,6.1
		C19.5,31.6,21.4,33.7,24.4,34.7z M28,24.6c1.9,0,3.8,0.5,5.1,1.4c0.2,0.1,0.4,0.2,0.7,0.1c0.2-0.1,0.4-0.3,0.4-0.5
		c0.5-2.2,3.5-3.9,7-3.9c3.5,0,6.5,1.7,7,3.9c0.1,0.2,0.2,0.4,0.4,0.5c0.2,0.1,0.5,0.1,0.7-0.1c1.4-0.9,3.2-1.4,5.1-1.4
		c3.9,0,7.1,2.1,7.1,4.6c0,1.8-1.7,3.5-4.3,4.2c-0.3,0.1-0.5,0.3-0.5,0.5l-0.4,2.1l-2-2.1c-0.1-0.1-0.3-0.2-0.5-0.2
		c-3.2-0.2-5.9-1.8-6.4-3.9c-0.1-0.2-0.2-0.4-0.4-0.5c-0.1,0-0.2,0-0.3,0c-0.1,0-0.3,0-0.4,0.1c-0.8,0.6-1.9,1-3,1.2
		c-0.2,0-0.4,0.2-0.5,0.3l-1.6,2.5L39.7,31c-0.1-0.2-0.3-0.3-0.5-0.3c-1.1-0.2-2.2-0.7-3-1.2c-0.2-0.1-0.4-0.2-0.7-0.1
		s-0.4,0.3-0.4,0.5c-0.5,2.1-3.2,3.7-6.4,3.9c-0.2,0-0.4,0.1-0.5,0.2l-2,2.1L25.7,34c-0.1-0.3-0.3-0.5-0.5-0.5
		c-2.6-0.7-4.3-2.4-4.3-4.2C20.9,26.7,24.1,24.6,28,24.6z"/>
	<path class="st0" d="M25.8,29.8h1.1v1.1c0,0.4,0.3,0.7,0.7,0.7c0.4,0,0.7-0.3,0.7-0.7v-1.1h1.1c0.4,0,0.7-0.3,0.7-0.7
		s-0.3-0.7-0.7-0.7h-1.1v-1.1c0-0.4-0.3-0.7-0.7-0.7s-0.7,0.3-0.7,0.7v1.1h-1.1c-0.4,0-0.7,0.3-0.7,0.7S25.4,29.8,25.8,29.8z"/>
	<path class="st0" d="M53.1,29.8h1.1v1.1c0,0.4,0.3,0.7,0.7,0.7c0.4,0,0.7-0.3,0.7-0.7v-1.1h1.1c0.4,0,0.7-0.3,0.7-0.7
		s-0.3-0.7-0.7-0.7h-1.1v-1.1c0-0.4-0.3-0.7-0.7-0.7c-0.4,0-0.7,0.3-0.7,0.7v1.1h-1.1c-0.4,0-0.7,0.3-0.7,0.7S52.7,29.8,53.1,29.8z"
		/>
	<path class="st0" d="M39.5,27.5h1.1v1.1c0,0.4,0.3,0.7,0.7,0.7c0.4,0,0.7-0.3,0.7-0.7v-1.1h1.1c0.4,0,0.7-0.3,0.7-0.7
		c0-0.4-0.3-0.7-0.7-0.7H42v-1.1c0-0.4-0.3-0.7-0.7-0.7s-0.7,0.3-0.7,0.7V26h-1.1c-0.4,0-0.7,0.3-0.7,0.7
		C38.8,27.2,39.1,27.5,39.5,27.5z"/>
</g>
</svg>
