<?xml version="1.0" encoding="utf-8"?>
<!-- Generator: Adobe Illustrator 24.2.1, SVG Export Plug-In . SVG Version: 6.00 Build 0)  -->
<!DOCTYPE svg PUBLIC "-//W3C//DTD SVG 1.1//EN" "http://www.w3.org/Graphics/SVG/1.1/DTD/svg11.dtd" [
	<!ENTITY ns_extend "http://ns.adobe.com/Extensibility/1.0/">
	<!ENTITY ns_ai "http://ns.adobe.com/AdobeIllustrator/10.0/">
	<!ENTITY ns_graphs "http://ns.adobe.com/Graphs/1.0/">
	<!ENTITY ns_vars "http://ns.adobe.com/Variables/1.0/">
	<!ENTITY ns_imrep "http://ns.adobe.com/ImageReplacement/1.0/">
	<!ENTITY ns_sfw "http://ns.adobe.com/SaveForWeb/1.0/">
	<!ENTITY ns_custom "http://ns.adobe.com/GenericCustomNamespace/1.0/">
	<!ENTITY ns_adobe_xpath "http://ns.adobe.com/XPath/1.0/">
]>
<svg version="1.1" id="Layer_1" xmlns:x="&ns_extend;" xmlns:i="&ns_ai;" xmlns:graph="&ns_graphs;"
	 xmlns="http://www.w3.org/2000/svg" xmlns:xlink="http://www.w3.org/1999/xlink" x="0px" y="0px" viewBox="0 0 513 345"
	 style="enable-background:new 0 0 513 345;" xml:space="preserve">
<style type="text/css">
	.st0{fill:none;}
	.st1{fill:#005B60;}
	.st2{fill:none;stroke:#FFFFFF;stroke-width:4;stroke-miterlimit:10;}
	.st3{enable-background:new    ;}
	.st4{fill:#FFFFFF;}
</style>
<metadata>
	<sfw  xmlns="&ns_sfw;">
		<slices></slices>
		<sliceSourceBounds  bottomLeftOrigin="true" height="345" width="513" x="0" y="0"></sliceSourceBounds>
	</sfw>
</metadata>
<rect class="st0" width="513" height="345"/>
<rect id="Rectangle_11" x="80" y="21" class="st1" width="353" height="294"/>
<circle id="Ellipse_3" class="st2" cx="208.6" cy="173.6" r="16.2"/>
<rect id="Rectangle_7" x="257.2" y="68.2" class="st2" width="32.4" height="40.6"/>
<rect id="Rectangle_8" x="216.7" y="68.2" class="st2" width="32.4" height="40.6"/>
<path id="Path_37" class="st2" d="M310,68.2h-12.2v40.6h48.5C345,88.5,333.4,68.2,310,68.2z"/>
<path id="Path_38" class="st2" d="M208.6,68.2h-36.5c-2.2,0-4.1,1.8-4.1,4c0,0,0,0.1,0,0.1l0,0v36.5h40.6V68.2z"/>
<path id="Path_39" class="st2" d="M168,116.9v52.7c0,2.3,1.8,4.1,4.1,4.1h12.2c-0.2-13.3,10.4-24.3,23.8-24.5c0.1,0,0.2,0,0.3,0
	c13.4-0.1,24.4,10.8,24.5,24.2v0.3h48.7c-0.1-13.4,10.7-24.4,24.1-24.4c13.4-0.1,24.4,10.7,24.5,24.1l0,0v0.3h12.2
	c2.3,0,4.1-1.8,4.1-4.1v-52.7H168z"/>
<circle id="Ellipse_4" class="st2" cx="305.9" cy="173.6" r="16.2"/>
<g class="st3">
	<path class="st4" d="M142.8,241.5h-4.2V225h-5.4v-3.5h15.1v3.5h-5.4V241.5z"/>
	<path class="st4" d="M155.6,233.8v7.7h-4.2v-20h5.8c2.7,0,4.7,0.5,6,1.5c1.3,1,2,2.5,2,4.5c0,1.2-0.3,2.2-1,3.1
		c-0.6,0.9-1.6,1.6-2.7,2.2c3,4.5,5,7.4,5.9,8.7h-4.7l-4.8-7.7H155.6z M155.6,230.4h1.4c1.3,0,2.3-0.2,3-0.7c0.6-0.4,1-1.1,1-2.1
		c0-0.9-0.3-1.6-1-2c-0.7-0.4-1.7-0.6-3-0.6h-1.3V230.4z"/>
	<path class="st4" d="M182,241.5l-1.4-4.8h-7.3l-1.4,4.8h-4.6l7.1-20.1h5.2l7.1,20.1H182z M179.6,233.2c-1.3-4.3-2.1-6.7-2.3-7.3
		c-0.2-0.6-0.3-1-0.4-1.3c-0.3,1.2-1.2,4.1-2.6,8.7H179.6z"/>
	<path class="st4" d="M206.9,241.5h-5.4l-8.7-15.1h-0.1c0.2,2.7,0.3,4.6,0.3,5.7v9.4h-3.8v-20h5.3l8.7,15h0.1
		c-0.1-2.6-0.2-4.4-0.2-5.5v-9.5h3.8V241.5z"/>
	<path class="st4" d="M223.7,236c0,1.8-0.6,3.2-1.9,4.3s-3.1,1.6-5.4,1.6c-2.1,0-4-0.4-5.7-1.2v-3.9c1.3,0.6,2.5,1,3.4,1.3
		c0.9,0.2,1.8,0.4,2.6,0.4c0.9,0,1.6-0.2,2.1-0.5c0.5-0.4,0.7-0.9,0.7-1.6c0-0.4-0.1-0.7-0.3-1s-0.5-0.6-1-0.9s-1.3-0.7-2.6-1.4
		c-1.2-0.6-2.1-1.1-2.7-1.7c-0.6-0.5-1.1-1.1-1.5-1.8c-0.4-0.7-0.5-1.5-0.5-2.5c0-1.8,0.6-3.2,1.8-4.2c1.2-1,2.9-1.5,5-1.5
		c1,0,2,0.1,3,0.4s1.9,0.6,3,1l-1.4,3.3c-1.1-0.4-1.9-0.7-2.6-0.9s-1.4-0.3-2.1-0.3c-0.8,0-1.4,0.2-1.8,0.6
		c-0.4,0.4-0.6,0.9-0.6,1.5c0,0.4,0.1,0.7,0.3,1c0.2,0.3,0.4,0.5,0.8,0.8c0.4,0.3,1.3,0.7,2.7,1.4c1.9,0.9,3.1,1.8,3.8,2.7
		C223.3,233.6,223.7,234.7,223.7,236z"/>
	<path class="st4" d="M241.1,227.8c0,2.2-0.7,3.8-2,4.9c-1.3,1.1-3.3,1.7-5.7,1.7h-1.8v7.1h-4.2v-20h6.4c2.4,0,4.3,0.5,5.5,1.6
		C240.5,224.1,241.1,225.7,241.1,227.8z M231.5,230.9h1.4c1.3,0,2.3-0.3,2.9-0.8c0.6-0.5,1-1.3,1-2.2c0-1-0.3-1.7-0.8-2.2
		c-0.5-0.5-1.4-0.7-2.5-0.7h-1.9V230.9z"/>
	<path class="st4" d="M263,231.5c0,3.3-0.8,5.9-2.5,7.6s-4,2.7-7.1,2.7s-5.4-0.9-7.1-2.7s-2.5-4.3-2.5-7.7s0.8-5.9,2.5-7.6
		c1.6-1.8,4-2.6,7.1-2.6c3.1,0,5.4,0.9,7,2.7S263,228.2,263,231.5z M248.4,231.5c0,2.2,0.4,3.9,1.3,5s2.1,1.7,3.8,1.7
		c3.4,0,5.1-2.2,5.1-6.7c0-4.5-1.7-6.8-5-6.8c-1.7,0-3,0.6-3.8,1.7C248.9,227.6,248.4,229.3,248.4,231.5z"/>
	<path class="st4" d="M271.4,233.8v7.7h-4.2v-20h5.8c2.7,0,4.7,0.5,6,1.5s2,2.5,2,4.5c0,1.2-0.3,2.2-1,3.1s-1.6,1.6-2.7,2.2
		c3,4.5,5,7.4,5.9,8.7h-4.7l-4.8-7.7H271.4z M271.4,230.4h1.4c1.3,0,2.3-0.2,3-0.7s1-1.1,1-2.1c0-0.9-0.3-1.6-1-2s-1.7-0.6-3-0.6
		h-1.3V230.4z"/>
	<path class="st4" d="M293.4,241.5h-4.2V225h-5.4v-3.5h15.1v3.5h-5.4V241.5z"/>
	<path class="st4" d="M314.1,241.5l-1.4-4.8h-7.3l-1.4,4.8h-4.6l7.1-20.1h5.2l7.1,20.1H314.1z M311.7,233.2
		c-1.3-4.3-2.1-6.7-2.3-7.3s-0.3-1-0.4-1.3c-0.3,1.2-1.2,4.1-2.6,8.7H311.7z"/>
	<path class="st4" d="M328.9,241.5h-4.2V225h-5.4v-3.5h15.1v3.5h-5.4V241.5z"/>
	<path class="st4" d="M337.4,241.5v-20h4.2v20H337.4z"/>
	<path class="st4" d="M364.8,231.5c0,3.3-0.8,5.9-2.5,7.6s-4,2.7-7.1,2.7s-5.4-0.9-7.1-2.7s-2.5-4.3-2.5-7.7s0.8-5.9,2.5-7.6
		s4-2.6,7.1-2.6s5.4,0.9,7,2.7S364.8,228.2,364.8,231.5z M350.2,231.5c0,2.2,0.4,3.9,1.3,5s2.1,1.7,3.8,1.7c3.4,0,5.1-2.2,5.1-6.7
		c0-4.5-1.7-6.8-5-6.8c-1.7,0-3,0.6-3.8,1.7S350.2,229.3,350.2,231.5z"/>
	<path class="st4" d="M386.7,241.5h-5.4l-8.7-15.1h-0.1c0.2,2.7,0.3,4.6,0.3,5.7v9.4H369v-20h5.3l8.7,15h0.1
		c-0.1-2.6-0.2-4.4-0.2-5.5v-9.5h3.8V241.5z"/>
</g>
</svg>
